<svg xmlns="http://www.w3.org/2000/svg" viewBox="0 0 32 32" fill="none">
  <defs>
    <linearGradient id="brainGradFav" x1="0%" y1="0%" x2="100%" y2="100%">
      <stop offset="0%" style="stop-color:#8B5CF6"/>
      <stop offset="100%" style="stop-color:#4F46E5"/>
    </linearGradient>
  </defs>
  
  <!-- Fundo -->
  <circle cx="16" cy="16" r="15" fill="#1E1B4B"/>
  
  <!-- Cérebro simplificado -->
  <path d="M16 7
           C12 7 9 10 8 12.5
           C7 15 7.5 17.5 9 19.5
           C10.5 21.5 12.5 23 14 24
           C15.5 25 16 25 16 25.5
           L16 7" 
        fill="url(#brainGradFav)"/>
  
  <path d="M16 7
           C20 7 23 10 24 12.5
           C25 15 24.5 17.5 23 19.5
           C21.5 21.5 19.5 23 18 24
           C16.5 25 16 25 16 25.5
           L16 7" 
        fill="url(#brainGradFav)"/>
  
  <!-- Sulcos -->
  <path d="M11 11 Q12.5 13 12 15" fill="none" stroke="#C4B5FD" stroke-width="1" stroke-linecap="round" opacity="0.8"/>
  <path d="M21 11 Q19.5 13 20 15" fill="none" stroke="#C4B5FD" stroke-width="1" stroke-linecap="round" opacity="0.8"/>
  
  <!-- Linha central -->
  <line x1="16" y1="6" x2="16" y2="26" stroke="#312E81" stroke-width="1"/>
  
  <!-- Ponto central -->
  <circle cx="16" cy="16" r="1.5" fill="#06B6D4"/>
</svg>
